<svg xmlns:dc="http://purl.org/dc/elements/1.1/" xmlns:cc="http://creativecommons.org/ns#" xmlns:rdf="http://www.w3.org/1999/02/22-rdf-syntax-ns#" xmlns:svg="http://www.w3.org/2000/svg" xmlns="http://www.w3.org/2000/svg" xmlns:sodipodi="http://sodipodi.sourceforge.net/DTD/sodipodi-0.dtd" xmlns:inkscape="http://www.inkscape.org/namespaces/inkscape" version="1.1" x="0px" y="0px" viewBox="0 0 100 125"><g transform="translate(0,-952.36218)"><path d="m 50,958.36217 c 1.533225,0 3.07637,0.53238 4.266673,1.66507 1.190304,1.13265 1.999985,2.90144 1.999985,5.03058 l 0,3.15297 c 1.166315,-1.03032 2.635653,-1.52334 4.100066,-1.52334 1.533012,0 3.07637,0.53239 4.266673,1.66508 1.189949,1.13265 1.966607,2.86603 1.966607,4.99514 l 0,6.69569 c 1.175882,-1.05247 2.650145,-1.55881 4.133338,-1.55881 1.537158,0 3.105922,0.53291 4.300016,1.66507 C 76.227204,981.28178 77,983.05007 77,985.18023 l 0,32.27377 c 0,9.5303 -3.385807,16.8479 -8.466626,21.6811 -5.080891,4.8332 -11.812819,7.2271 -18.533374,7.2271 -6.72052,0 -13.452484,-2.3939 -18.533304,-7.2271 C 26.385808,1034.3019 23,1026.9843 23,1017.454 l 0,-19.87443 c 0,-2.13764 0.810142,-3.89214 1.999984,-5.03061 1.189878,-1.13843 2.732173,-1.66503 4.266673,-1.66503 1.465583,0 2.934071,0.48844 4.099962,1.52334 l 0,-19.095 c 0,-2.13017 0.805959,-3.86302 1.999983,-4.99518 1.194166,-1.13216 2.729623,-1.66507 4.266674,-1.66507 1.48089,0 2.958306,0.50974 4.133373,1.55877 l 0,-3.15297 c 0,-2.12914 0.77641,-3.89793 1.966677,-5.03058 1.190303,-1.13269 2.733449,-1.66507 4.266673,-1.66507 z m 0,2.26733 c -1.055693,0 -2.081905,0.3831 -2.833263,1.09821 -0.751465,0.71511 -1.266803,1.76373 -1.266803,3.33011 0,12.04508 0,24.0902 0,36.13528 0.0107,0.5989 -0.503045,1.1498 -1.066642,1.1498 -0.563635,0 -1.074686,-0.5509 -1.066643,-1.1498 0,-9.28595 0,-18.61512 0,-27.88083 0,-1.56539 -0.511901,-2.5791 -1.26659,-3.29471 -0.754759,-0.7156 -1.805456,-1.09821 -2.866784,-1.09821 -1.06122,0 -2.111882,0.38261 -2.866535,1.09821 -0.75476,0.71561 -1.266802,1.72932 -1.266802,3.29471 0,14.51225 0,28.99843 0,43.50403 0.01067,0.5989 -0.503009,1.1498 -1.066677,1.1498 -0.5636,0 -1.074651,-0.5509 -1.066642,-1.1498 0,-6.4123 0,-12.8245 0,-19.23674 0,-1.57797 -0.514986,-2.61073 -1.266556,-3.3301 -0.75189,-0.71939 -1.778989,-1.09825 -2.833406,-1.09825 -1.054382,0 -2.114752,0.37886 -2.866642,1.09825 -0.751889,0.71937 -1.266661,1.75213 -1.266661,3.3301 l 0,19.87444 c 0,8.9674 3.124701,15.5649 7.766716,19.9807 4.641697,4.4157 10.856729,6.6602 17.09993,6.6602 6.243235,0 12.491291,-2.2445 17.133341,-6.6602 4.642016,-4.4158 7.733339,-11.0133 7.733339,-19.9807 l 0,-32.27378 c 0,-1.5654 -0.511902,-2.61453 -1.266696,-3.33014 -0.75476,-0.71561 -1.805315,-1.09821 -2.866642,-1.09821 -1.061362,0 -2.111881,0.3826 -2.866677,1.09821 -0.754795,0.71561 -1.266661,1.76474 -1.266661,3.33014 0,6.6853 0,13.42006 0,20.12238 0.01066,0.5989 -0.50308,1.1498 -1.066677,1.1498 -0.563599,0 -1.074686,-0.5509 -1.066677,-1.1498 0,-10.65469 0,-21.30315 0,-31.95493 0,-1.56638 -0.515197,-2.57957 -1.266662,-3.29468 -0.751464,-0.7151 -1.777819,-1.0982 -2.833264,-1.0982 -1.055763,0 -2.115212,0.3831 -2.866783,1.0982 -0.75111,0.71511 -1.233283,1.7283 -1.233283,3.29468 0,0.0354 0,0.0709 0,0.10631 l 0,28.09342 c 0.01066,0.5989 -0.503044,1.1498 -1.066642,1.1498 -0.563634,0 -1.074685,-0.5509 -1.066677,-1.1498 0,-12.16697 0,-24.33213 0,-36.48958 0,-1.56638 -0.515162,-2.615 -1.266626,-3.33011 C 52.115213,961.0126 51.055764,960.6295 50,960.6295 z" style="text-indent:0;text-transform:none;direction:ltr;block-progression:tb;baseline-shift:baseline;color:#000000;enable-background:accumulate;" fill="#000000" fill-opacity="1" fill-rule="evenodd" stroke="none" marker="none" visibility="visible" display="inline" overflow="visible"/><path d="m 37.619934,1031.7874 a 1.0667733,1.1337687 0 0 1 0.65785,0.2586 c 0.548894,0.4667 1.115787,0.9158 1.688988,1.2741 a 1.0668093,1.133807 0 0 1 -1.081842,1.9545 c -0.711921,-0.4451 -1.354429,-0.96 -1.939429,-1.4574 a 1.0667733,1.1337687 0 0 1 0.674433,-2.0298 z" style="text-indent:0;text-transform:none;direction:ltr;block-progression:tb;baseline-shift:baseline;color:#000000;enable-background:accumulate;" fill="#000000" fill-opacity="1" fill-rule="evenodd" stroke="none" marker="none" visibility="visible" display="inline" overflow="visible"/><path d="m 67.88215,1020.0531 a 1.0667733,1.1337687 0 0 1 1.008637,1.3896 c -1.511043,7.4041 -5.246362,12.1906 -9.77361,14.7219 -4.527283,2.5313 -9.781157,2.8469 -14.425972,1.6444 a 1.0667938,1.1337905 0 1 1 0.505488,-2.203 c 4.199244,1.0871 8.942209,0.7801 12.928323,-1.4486 3.986149,-2.2287 7.280787,-6.3396 8.679968,-13.1955 a 1.0667733,1.1337687 0 0 1 1.077166,-0.9088 z" style="text-indent:0;text-transform:none;direction:ltr;block-progression:tb;baseline-shift:baseline;color:#000000;enable-background:accumulate;" fill="#000000" fill-opacity="1" fill-rule="evenodd" stroke="none" marker="none" visibility="visible" display="inline" overflow="visible"/></g><text x="0" y="115" fill="#000000" font-size="5px" font-weight="bold" font-family="'Helvetica Neue', Helvetica, Arial-Unicode, Arial, Sans-serif">Created by Royyan Razka</text><text x="0" y="120" fill="#000000" font-size="5px" font-weight="bold" font-family="'Helvetica Neue', Helvetica, Arial-Unicode, Arial, Sans-serif">from the Noun Project</text></svg>