<svg xmlns="http://www.w3.org/2000/svg" viewBox="0 0 60 75" x="0px" y="0px"><path d="M3,48H5.79a10.8,10.8,0,0,1,6.047,1.833A12.922,12.922,0,0,0,19,52H28.31a4.8,4.8,0,0,0,3.433-1.464A4.363,4.363,0,0,0,33,47.332a4.443,4.443,0,0,0-.828-2.414,4.832,4.832,0,0,0,2.573-1.387A4.36,4.36,0,0,0,36,40.331,4.436,4.436,0,0,0,35.227,38H55.3a4.811,4.811,0,0,0,3.442-1.471A4.352,4.352,0,0,0,60,33.331,4.542,4.542,0,0,0,55.5,29H38.344l14.08-2.914a4.477,4.477,0,0,0,1.861-8.075,4.538,4.538,0,0,0-3.352-.8L26.819,21.263c-.639.107-1.2.2-1.7.286l4.32-4.922a5.1,5.1,0,0,0,.746-6.418,5.053,5.053,0,0,0-7.7-.777l.015.015c-.612.568-2.993,2.9-13.357,13.028A8.7,8.7,0,0,1,3,25a3,3,0,0,0-3,3V45A3,3,0,0,0,3,48ZM2,28a1,1,0,0,1,1-1,10.681,10.681,0,0,0,7.546-3.1L23.892,10.855a3.056,3.056,0,0,1,4.635.467,3.128,3.128,0,0,1-.542,3.938l-6.2,7.062a.95.95,0,0,0-.248.851,1.052,1.052,0,0,0,.632.762.978.978,0,0,0,.525.049l28.573-4.8a2.5,2.5,0,0,1,1.858.453,2.452,2.452,0,0,1,1.019,1.6,2.51,2.51,0,0,1-2.087,2.885l-23.679,4.9a1,1,0,0,0,.2,1.979H55.5A2.557,2.557,0,0,1,58,33.4a2.383,2.383,0,0,1-.7,1.736,2.806,2.806,0,0,1-2,.859H31.5a1,1,0,0,0,0,2A2.557,2.557,0,0,1,34,40.4a2.391,2.391,0,0,1-.7,1.739A2.805,2.805,0,0,1,31.3,43H28.5a1,1,0,1,0,0,2A2.557,2.557,0,0,1,31,47.405a2.383,2.383,0,0,1-.7,1.742A2.789,2.789,0,0,1,28.31,50H19a10.929,10.929,0,0,1-6.052-1.83A12.777,12.777,0,0,0,5.79,46H3a1,1,0,0,1-1-1Z"/><text x="0" y="75" fill="#000000" font-size="5px" font-weight="bold" font-family="'Helvetica Neue', Helvetica, Arial-Unicode, Arial, Sans-serif">Created by Juicy Fish</text><text x="0" y="80" fill="#000000" font-size="5px" font-weight="bold" font-family="'Helvetica Neue', Helvetica, Arial-Unicode, Arial, Sans-serif">from the Noun Project</text></svg>